<svg width="10" height="13" viewBox="0 0 10 13" fill="none" xmlns="http://www.w3.org/2000/svg">
<path d="M5.00002 0C2.24306 0 0 1.8596 0 4.14524C0 4.83139 0.206924 5.5117 0.600294 6.11513L4.72659 12.3021C4.78152 12.3846 4.8862 12.4357 5.00002 12.4357C5.11383 12.4357 5.21851 12.3846 5.27344 12.3021L9.40126 6.11309C9.79311 5.5117 10 4.83136 10 4.14521C10 1.8596 7.75697 0 5.00002 0ZM5.00002 6.21784C3.62154 6.21784 2.50002 5.28806 2.50002 4.14524C2.50002 3.00242 3.62154 2.07263 5.00002 2.07263C6.37849 2.07263 7.50001 3.00242 7.50001 4.14524C7.50001 5.28806 6.37849 6.21784 5.00002 6.21784Z" fill="black"/>
</svg>
