<svg width="12" height="12" viewBox="0 0 12 12" fill="none" xmlns="http://www.w3.org/2000/svg">
<g clip-path="url(#clip0)">
<path d="M10.7373 3.15747C10.4888 3.27771 10.3848 3.57678 10.505 3.8252C10.8335 4.50378 11 5.23523 11 6C11 8.75696 8.75696 11 6 11C3.24304 11 1 8.75696 1 6C1 3.24304 3.24304 1 6 1C7.14246 1 8.2157 1.37305 9.104 2.07874C9.31946 2.25073 9.63452 2.21472 9.80652 1.99854C9.97852 1.78247 9.9425 1.46777 9.7262 1.29602C8.67456 0.460205 7.3512 0 6 0C2.69177 0 0 2.69177 0 6C0 9.30823 2.69177 12 6 12C9.30823 12 12 9.30823 12 6C12 5.08325 11.7998 4.20471 11.405 3.38977C11.285 3.14075 10.985 3.03699 10.7373 3.15747Z" fill="black"/>
<path d="M6 2C5.724 2 5.5 2.224 5.5 2.5V6C5.5 6.276 5.724 6.5 6 6.5H8.5C8.776 6.5 9 6.276 9 6C9 5.724 8.776 5.5 8.5 5.5H6.5V2.5C6.5 2.224 6.276 2 6 2Z" fill="black"/>
</g>
<defs>
<clipPath id="clip0">
<rect width="12" height="12" fill="white"/>
</clipPath>
</defs>
</svg>
